<svg width="17" height="17" viewBox="0 0 17 17" fill="none" xmlns="http://www.w3.org/2000/svg">
<path d="M0.716919 0.333496V13.4244C0.716919 15.0317 1.81846 16.3335 3.17846 16.3335H14.2554C15.6154 16.3335 16.7169 15.0317 16.7169 13.4244V5.42441H13.0246V0.333496H0.716919ZM1.94769 1.78804H11.7938V13.4244C11.7938 13.9553 11.9292 14.4499 12.1403 14.879H3.17846C2.44615 14.879 1.94769 14.2899 1.94769 13.4244V1.78804ZM3.17846 3.24259V6.87895H10.5631V3.24259H3.17846ZM4.40923 4.69713H9.3323V5.42441H4.40923V4.69713ZM13.0246 6.87895H15.4862V13.4244C15.4862 14.2899 14.9877 14.879 14.2554 14.879C13.5231 14.879 13.0246 14.2899 13.0246 13.4244V6.87895ZM3.17846 7.60622V9.06077H6.25538V7.60622H3.17846ZM7.48615 7.60622V9.06077H10.5631V7.60622H7.48615ZM3.17846 9.78804V11.2426H6.25538V9.78804H3.17846ZM7.48615 9.78804V11.2426H10.5631V9.78804H7.48615ZM3.17846 11.9699V13.4244H6.25538V11.9699H3.17846ZM7.48615 11.9699V13.4244H10.5631V11.9699H7.48615Z" fill="#686868"/>
</svg>
