<svg width="17" height="17" viewBox="0 0 17 17" fill="none" xmlns="http://www.w3.org/2000/svg">
<path fill-rule="evenodd" clip-rule="evenodd" d="M14.7901 0.661133H1.99014C1.11014 0.661133 0.390137 1.46113 0.390137 2.43891V14.8834C0.390137 15.8611 1.11014 16.6611 1.99014 16.6611H14.7901C15.6701 16.6611 16.3901 15.8611 16.3901 14.8834V2.43891C16.3901 1.46113 15.6701 0.661133 14.7901 0.661133ZM14.7901 14.8834H1.99014V2.43891H14.7901V14.8834Z" fill="#686868"/>
<path fill-rule="evenodd" clip-rule="evenodd" d="M14.318 7.2568L13.182 5.99458L10.646 8.81235L9.51803 7.55013L8.39003 8.80346L10.646 11.3279L14.318 7.2568ZM2.79004 4.2168H6.79003V5.99458H2.79004V4.2168ZM2.79004 7.77235H6.79003V9.55013H2.79004V7.77235ZM2.79004 11.3279H6.79003V13.1057H2.79004V11.3279Z" fill="#686868"/>
</svg>
