<svg width="24" height="24" viewBox="0 0 24 24" fill="none" xmlns="http://www.w3.org/2000/svg">
<path d="M23.76 0H0.24C0.108 0 0 0.122727 0 0.272727V2.45455C0 2.60455 0.108 2.72727 0.24 2.72727H23.76C23.892 2.72727 24 2.60455 24 2.45455V0.272727C24 0.122727 23.892 0 23.76 0ZM23.76 21.2727H0.24C0.108 21.2727 0 21.3955 0 21.5455V23.7273C0 23.8773 0.108 24 0.24 24H23.76C23.892 24 24 23.8773 24 23.7273V21.5455C24 21.3955 23.892 21.2727 23.76 21.2727ZM23.76 10.6364H0.24C0.108 10.6364 0 10.7591 0 10.9091V13.0909C0 13.2409 0.108 13.3636 0.24 13.3636H23.76C23.892 13.3636 24 13.2409 24 13.0909V10.9091C24 10.7591 23.892 10.6364 23.76 10.6364Z" fill="white"/>
</svg>
