<svg width="17" height="16" viewBox="0 0 17 16" fill="none" xmlns="http://www.w3.org/2000/svg">
<g clip-path="url(#clip0)">
<path fill-rule="evenodd" clip-rule="evenodd" d="M11.3402 10.4422C11.4339 10.3492 11.545 10.2755 11.6674 10.2252C11.7897 10.1748 11.9209 10.1489 12.0533 10.1489C12.1858 10.1489 12.3169 10.1748 12.4393 10.2252C12.5617 10.2755 12.6728 10.3492 12.7664 10.4422L16.6468 14.2922C16.8359 14.4797 16.9422 14.7341 16.9423 14.9994C16.9424 15.2646 16.8363 15.5191 16.6473 15.7067C16.4583 15.8944 16.202 15.9998 15.9346 15.9999C15.6672 16 15.4108 15.8947 15.2217 15.7072L11.3413 11.8572C11.2475 11.7643 11.1732 11.6541 11.1225 11.5327C11.0718 11.4113 11.0457 11.2811 11.0457 11.1497C11.0457 11.0183 11.0718 10.8882 11.1225 10.7668C11.1732 10.6454 11.2475 10.5351 11.3413 10.4422H11.3402Z" fill="#333333"/>
<path fill-rule="evenodd" clip-rule="evenodd" d="M7.36711 12C8.09508 12 8.81593 11.8577 9.48849 11.5813C10.161 11.3049 10.7721 10.8998 11.2869 10.3891C11.8017 9.87837 12.21 9.27205 12.4886 8.60476C12.7671 7.93747 12.9105 7.22227 12.9105 6.5C12.9105 5.77773 12.7671 5.06253 12.4886 4.39524C12.21 3.72795 11.8017 3.12163 11.2869 2.61091C10.7721 2.10019 10.161 1.69506 9.48849 1.41866C8.81593 1.14226 8.09508 1 7.36711 1C5.8969 1 4.48691 1.57946 3.44732 2.61091C2.40773 3.64236 1.82369 5.04131 1.82369 6.5C1.82369 7.95869 2.40773 9.35764 3.44732 10.3891C4.48691 11.4205 5.8969 12 7.36711 12ZM13.9184 6.5C13.9184 8.22391 13.2282 9.87721 11.9996 11.0962C10.771 12.3152 9.10463 13 7.36711 13C5.62959 13 3.96324 12.3152 2.73463 11.0962C1.50602 9.87721 0.815796 8.22391 0.815796 6.5C0.815796 4.77609 1.50602 3.12279 2.73463 1.90381C3.96324 0.684819 5.62959 0 7.36711 0C9.10463 0 10.771 0.684819 11.9996 1.90381C13.2282 3.12279 13.9184 4.77609 13.9184 6.5Z" fill="#333333"/>
</g>
<defs>
<clipPath id="clip0">
<rect width="16.1263" height="16" fill="white" transform="translate(0.815796)"/>
</clipPath>
</defs>
</svg>
